<?xml version="1.0" encoding="utf-8"?>
<!DOCTYPE svg PUBLIC "-//W3C//DTD SVG 1.1//EN" "http://www.w3.org/Graphics/SVG/1.1/DTD/svg11.dtd">
<svg width="20" height="20" xmlns="http://www.w3.org/2000/svg" xmlns:xlink="http://www.w3.org/1999/xlink" version="1.1" viewBox="0 0 630 450">
<path d="M512.3,122.9l-18.1-30c-1.6-2.7-4.5-4.3-7.6-4.3h-110c-3.1,0-6,1.6-7.6,4.3l-18.7,31c-0.1,0.1-0.1,0.2-0.1,0.3 c-0.3,0.5-0.5,1-0.7,1.5c-0.1,0.2-0.1,0.4-0.2,0.6c-0.1,0.6-0.2,1.2-0.3,1.8c0,0.1,0,0.2,0,0.3c0,0,0,0,0,0.1v28.4l-50.4-46 l0,0c-7.9-9.5-20.1-14.7-33-13c-20.5,2.5-35,21.2-32.5,41.7l14.3,117.7l-25.1,64.1l-76.6,2.8c-12.2,1.1-21.4,11.6-20.9,23.9 c0.6,12.7,11.3,22.5,24.8,21.9l104.8-4.9l34.7-82.5l62.4,47.8l14.7,75.4c2.9,11.8,14.7,19.4,26.8,17 c12.5-2.5,20.6-14.6,18-27.8l-19.4-92.9L321.4,249l-8.5-70l36.1,31.7v29.4c0,4.9,4,8.9,8.9,8.9h147.4c4.9,0,8.9-4,8.9-8.9 V129.4c0-0.3,0.1-0.6,0.1-0.9C514.2,126.4,513.5,124.5,512.3,122.9z M440.4,106.4h41.1l7.9,13.2h-49V106.4z M381.6,106.4h41.1 v13.2h-49L381.6,106.4z M496.3,231.2H366.8v-16.6l57.5,0.1l2.2,0c11.8-0.2,20.7-9.4,20.5-20.6c-0.2-10.8-8.9-19.5-19.6-19.9 l-59.5-0.1l-1.1-1v-35.7h129.6V231.2z M295.8,93.3c19.5,2.4,37.3-11.4,39.8-30.9c2.4-19.5-11.4-37.3-30.9-39.8 S267.3,34,264.8,53.5C262.4,73,276.3,90.8,295.8,93.3z"/>
</svg>
