<svg xmlns='http://www.w3.org/2000/svg' viewBox="0 0 100 15.737367890989217" class="css-1j8o68f">
    <defs id="SvgjsDefs1163"></defs>
    <g id="SvgjsG1164" featurekey="nameFeature-0"
    transform="matrix(0.5618681223431485,0,0,0.5618681223431485,0.625541626260819,-6.73790141536137)"
    fill="#000000">
    <path
        d="M1.3867 12.030999999999999 l8.4961 0 c3.5547 0 6.0025 1.2044 7.3438 3.6133 c1.1198 1.888 1.6797 5.0064 1.6797 9.3555 l0.83984 0 l0 6.6797 l-8.2617 0 l0 -0.74219 l2.5781 0 l0 -5.9375 l-0.74219 0 l0 -2.4414 c0 -2.7475 -0.61197 -4.4986 -1.8359 -5.2539 c-0.72916 -0.41666 -1.888 -0.625 -3.4766 -0.625 l-1.1328 0 l0 8.1836 l0.76172 0 l0 6.8164 l-5.6055 0 l0 -6.2891 l-0.64453 0 l0 -13.359 z M13.457 29.609 l0.27344 0 l0 0.70313 l0.15625 0 l0 0.23438 l-0.15625 0 l0 0.29297 l-0.27344 0 l0 -0.29297 l-0.50781 0 l0 -0.17578 c0.33854 -0.46875 0.50781 -0.72266 0.50781 -0.76172 z M13.223 30.3125 l0.23438 0 l0 -0.27344 c-0.039063 0 -0.11719 0.091152 -0.23438 0.27344 z M7.9102 30.273400000000002 l0.27344 -0.000038146 c0.039063 0 0.13672 0.11068 0.29297 0.33203 c0.13021 -0.15625 0.19531 -0.26693 0.19531 -0.33203 l0.3125 0 l0 0.039063 c-0.20834 0.29947 -0.3125 0.48828 -0.3125 0.56641 l0.37109 0.60547 l-0.37109 0 c0 -0.10416 -0.078125 -0.22785 -0.23438 -0.37107 c-0.11719 0.23438 -0.21484 0.35807 -0.29297 0.37109 l-0.27344 0 c0.20834 -0.3776 0.34506 -0.57941 0.41016 -0.60545 z M-1.1133 31.6797 l2.5391 0 l0 0.89844 l6.2109 0 l0 1.8359 l3.8477 0 l0 -1.8359 l8.2617 0 l0 1.8359 l-5.6836 0 l0 4.9805 l-6.4258 0 l0 0.60547 l-6.1719 0 c-0.05209 0 -0.078125 -0.032559 -0.078125 -0.097656 l0 -7.3242 l-2.5 0 l0 -0.89844 z M7.6367 31.6797 l3.8477 0 l0 0.89844 l-3.8477 0 l0 -0.89844 z M19.746 31.6797 l5.5078 0 l0 0.89844 l-5.5078 0 l0 -0.89844 z M14.727 34.5898 l0.33201 0 c0.22135 0.61197 0.35807 1.0352 0.41016 1.2695 l-0.23438 0 c-0.05209 0 -0.097656 -0.091152 -0.13672 -0.27344 l-0.37109 0 c-0.065098 0 -0.11066 0.091152 -0.1367 0.27344 l-0.29297 0 l0 -0.039063 c0 -0.026035 0.14322 -0.43619 0.42969 -1.2305 z M15.801 34.5898 l0.29297 0.000019073 l0.23438 0.80078 l0.039063 0 c0 -0.05209 0.078125 -0.31902 0.23438 -0.8008 l0.29297 0 c0 0.10416 -0.13021 0.52734 -0.39063 1.2695 l-0.27344 0 c-0.078125 0 -0.22135 -0.42318 -0.42969 -1.2695 z M17.363 34.5898 l0.33203 0 l0 1.2695 l-0.33203 0 l0 -1.2695 z M18.242 34.5898 l0.52734 -0.000019073 c0.40365 0 0.60547 0.23438 0.60547 0.70313 c0 0.32553 -0.20182 0.51434 -0.60547 0.56643 l-0.52734 0 l0 -1.2695 z M18.574 34.8828 l0 0.70313 l0.29297 0 c0.039063 0 0.097656 -0.065098 0.17578 -0.19531 l0 -0.33203 c0 -0.039063 -0.058594 -0.097656 -0.17578 -0.17578 l-0.29297 0 z M14.863 34.9805 c0 0.039063 -0.032559 0.16275 -0.097656 0.37109 l0.23438 0 c-0.05209 -0.20834 -0.078125 -0.33203 -0.078125 -0.37109 l-0.058594 0 z M29.1083921875 12.030999999999999 l13.789 0 l0 4.5703 c0 0.065098 -0.032559 0.097656 -0.097656 0.097656 l-8.1836 0 l0 6.0742 l7.3438 0 l0 0.039063 c0 0.18229 -0.032559 1.1719 -0.097656 2.9688 c-0.026035 0 -0.039063 0.019531 -0.039063 0.058594 l0.33203 0 l0 1.4063 l-6.3672 0 l0 5.7422 l-1.6992 0 l0 0.56641 l1.6992 0 l0 1.7383 l7.207 0 l0 0.66406 l-0.56641 0 l0 3.4375 l-8.6133 0 l0 0.60547 l-4.1016 0 l0 -10.02 l-0.60547 0 l0 -3.5352 l-4.4727 0 l0 -0.60547 l4.4727 0 l0 -13.809 z M29.1474921875 25.84 l0 0.60547 l2.3047 0 l0 -0.60547 l-2.3047 0 z M36.2177921875 33.8867 l0.33203 -0.000019073 l0 0.46875 l0.039063 0 c0 -0.091152 0.14322 -0.2474 0.42969 -0.46875 l0.33203 0 l-0.46875 0.50781 l0.50781 0.76172 l-0.33203 0 c-0.2474 -0.35156 -0.38412 -0.52734 -0.41016 -0.52734 c-0.065098 0.013027 -0.097656 0.045586 -0.097656 0.097676 l0 0.42969 l-0.33203 0 l0 -1.2695 z M37.8579921875 33.8867 l0.66406 0 c0.20834 0 0.35156 0.12369 0.42969 0.37109 c0 0.039063 -0.065098 0.14975 -0.19531 0.33203 c0.091152 0 0.15625 0.18881 0.19531 0.56641 l-0.23438 0 c-0.065098 0 -0.11719 -0.15625 -0.15625 -0.46875 l-0.37109 0 l0 0.46875 l-0.33203 0 l0 -1.2695 z M39.9869921875 33.8867 l0.1758 -0.000019073 c0.28646 0 0.46225 0.18881 0.52734 0.56641 l0 0.17578 c0 0.10416 -0.045566 0.21484 -0.13672 0.33203 l0 0.058594 c0.091152 0 0.13672 0.026035 0.13672 0.078125 s-0.045566 0.10418 -0.13672 0.15627 c-0.05209 0 -0.10418 -0.05209 -0.15627 -0.15625 l-0.23438 0.058594 l-0.17578 0 c-0.3125 0 -0.48828 -0.23438 -0.52734 -0.70313 c0.091152 -0.3776 0.26693 -0.56641 0.52734 -0.56641 z M39.7919921875 34.4531 l0 0.13674 c0 0.22135 0.11068 0.33203 0.33203 0.33203 l0.039063 0 l0 -0.058594 l-0.078125 0 l0 -0.039063 c0 -0.05209 0.045566 -0.097656 0.13672 -0.13672 l0.13672 0.078125 c0 -0.013027 0.013027 -0.10418 0.039063 -0.27346 c-0.013027 -0.2474 -0.13672 -0.37109 -0.37109 -0.37109 c-0.15625 0.039063 -0.23438 0.14975 -0.23438 0.33203 z M38.189992187499996 34.1602 l0 0.29297 l0.33203 0 c0.065098 0 0.097656 -0.032559 0.097656 -0.097656 l0 -0.097656 c0 -0.065098 -0.032559 -0.097656 -0.097656 -0.097656 l-0.33203 0 z M42.7219921875 36.2305 l0.27344 0 l0 0.058594 c0 0.5599 -0.045566 0.83984 -0.13672 0.83984 s-0.13672 -0.20182 -0.13672 -0.60547 l0 -0.29297 z M42.7219921875 37.168 l0.27344 0 l0 0.29297 l-0.27344 0 l0 -0.29297 z M50.169919375 12.012 l5.5469 0 l0 11.484 l-1.0742 0 l0 11.855 l8.2617 0 l0 2.4805 l-1.6406 0 l0 0.56641 l1.6406 0 l0 1.6016 l-5.3516 0 l0 -0.42969 l-7.3438 0 c-0.026035 -0.3125 -0.039063 -0.54688 -0.039063 -0.70313 l0 -6.25 l1.4063 0 l0 -0.83984 l-1.4063 0 l0 -19.766 z M55.013659375 33.8867 l0.33203 0 c0.15625 0.22135 0.2474 0.33203 0.27344 0.33203 c0.10416 -0.22135 0.18229 -0.33203 0.23438 -0.33203 l0.29297 0 c-0.039063 0.10416 -0.16275 0.29297 -0.37109 0.56641 c0.065098 0.13021 0.20182 0.35156 0.41016 0.66406 l-0.33203 0 c-0.15625 -0.14322 -0.23438 -0.27344 -0.23438 -0.39063 c-0.026035 0 -0.13672 0.13021 -0.33203 0.39063 l-0.27344 0 l0 -0.058594 l0.37109 -0.56641 l0 -0.039063 z M62.904359375 37.832 l2.0313 0 l0 0.56641 l-2.0313 0 l0 -0.56641 z M72.3057015625 12.012 l5.2734 -0.000019073 c0.05209 0.013027 0.078125 0.045586 0.078125 0.097676 l0 13.594 c0 0.065098 -0.026035 0.097656 -0.078125 0.097656 l-0.625 0 l0 14.102 c0 0.065098 -0.032559 0.097656 -0.097656 0.097656 l-4.5508 0 c-0.065098 0 -0.097656 -0.032559 -0.097656 -0.097656 l0 -14.434 l-1.4063 0 c-0.065098 0 -0.097656 -0.032559 -0.097656 -0.097656 l0 -0.60547 c0.013027 -0.065098 0.045586 -0.097656 0.097676 -0.097656 l1.4063 0 l0 -12.559 c0.013027 -0.065098 0.045586 -0.097656 0.097676 -0.097656 z M72.2470015625 24.668 l0 0.80078 l2.6953 0 l0 -0.80078 l-2.6953 0 z M84.46094 12.012 l5.9375 -0.000019073 c0.039063 0.3125 0.78775 3.9453 2.2461 10.898 l1.2305 0 l0 1.0742 l-1.4844 0 l0 -1.0742 l-2.0898 0 l0 1.0742 l2.0898 0 l0 5.0195 l0.66406 0 l0 2.5977 l1.6406 0 l0 -3.8281 l0.60547 0 l0 -3.7891 l1.1914 0 l0 -1.0742 l-0.9375 0 c1.4713 -6.9531 2.2266 -10.586 2.2656 -10.898 l5.9375 0 c-2.1484 9.3359 -3.2227 14.095 -3.2227 14.277 l0 4.8633 l-1.6406 0 l0 0.97656 l1.2305 0 l0 2.8516 l-2.207 0 l0 5.0195 l-6.9531 0 c-0.078125 0 -0.26693 -0.71615 -0.56641 -2.1484 l1.7969 0 l0 -1.1719 l-2.0117 0 c-0.078125 0 -0.26041 -0.75521 -0.54688 -2.2656 c-0.14322 -0.45572 -1.8685 -7.9232 -5.1758 -22.402 z M98.23075 35.1953 l0.60549 0 c0.16928 0 0.28646 0.097656 0.35156 0.29297 l-0.13672 0.3125 c0.065098 0 0.11066 0.16928 0.1367 0.50781 l-0.19531 0 c-0.065098 0 -0.11719 -0.13672 -0.15625 -0.41016 l-0.35156 0 l0 0.41016 l-0.25391 0 l0 -1.1133 z M98.48475 35.3906 l0 0.25391 l0.3125 0 c0.065098 0 0.097656 -0.032559 0.097656 -0.097656 l0 -0.058594 c0 -0.065098 -0.032559 -0.097656 -0.097656 -0.097656 l-0.3125 0 z M98.23075 36.7187 l0.82031 0 l0 0.15625 c0 0.065098 -0.039063 0.097656 -0.11719 0.097656 l-0.44922 0 l0 0.15625 l0.44922 0 l0 0.25391 l-0.44922 0 l0 0.46875 l-0.25391 0 l0 -1.1328 z M98.23075 38.2617 l0.25391 0 l0 1.1328 l-0.25391 0 l0 -1.1328 z M113.0615171875 12.030999999999999 l13.789 0 l0 4.5703 c0 0.065098 -0.032559 0.097656 -0.097656 0.097656 l-8.1836 0 l0 6.0742 l7.3438 0 l0 0.039063 c0 0.18229 -0.032559 1.1719 -0.097656 2.9688 c-0.026035 0 -0.039063 0.019531 -0.039063 0.058594 l0.33203 0 l0 1.4063 l-6.3672 0 l0 5.7422 l-1.6992 0 l0 0.56641 l1.6992 0 l0 1.7383 l7.207 0 l0 0.66406 l-0.56641 0 l0 3.4375 l-8.6133 0 l0 0.60547 l-4.1016 0 l0 -10.02 l-0.60547 0 l0 -3.5352 l-4.4727 0 l0 -0.60547 l4.4727 0 l0 -13.809 z M113.1006171875 25.84 l0 0.60547 l2.3047 0 l0 -0.60547 l-2.3047 0 z M120.1709171875 33.8867 l0.33203 -0.000019073 l0 0.46875 l0.039063 0 c0 -0.091152 0.14322 -0.2474 0.42969 -0.46875 l0.33203 0 l-0.46875 0.50781 l0.50781 0.76172 l-0.33203 0 c-0.2474 -0.35156 -0.38412 -0.52734 -0.41016 -0.52734 c-0.065098 0.013027 -0.097656 0.045586 -0.097656 0.097676 l0 0.42969 l-0.33203 0 l0 -1.2695 z M121.8111171875 33.8867 l0.66406 0 c0.20834 0 0.35156 0.12369 0.42969 0.37109 c0 0.039063 -0.065098 0.14975 -0.19531 0.33203 c0.091152 0 0.15625 0.18881 0.19531 0.56641 l-0.23438 0 c-0.065098 0 -0.11719 -0.15625 -0.15625 -0.46875 l-0.37109 0 l0 0.46875 l-0.33203 0 l0 -1.2695 z M123.9401171875 33.8867 l0.1758 -0.000019073 c0.28646 0 0.46225 0.18881 0.52734 0.56641 l0 0.17578 c0 0.10416 -0.045566 0.21484 -0.13672 0.33203 l0 0.058594 c0.091152 0 0.13672 0.026035 0.13672 0.078125 s-0.045566 0.10418 -0.13672 0.15627 c-0.05209 0 -0.10418 -0.05209 -0.15627 -0.15625 l-0.23438 0.058594 l-0.17578 0 c-0.3125 0 -0.48828 -0.23438 -0.52734 -0.70313 c0.091152 -0.3776 0.26693 -0.56641 0.52734 -0.56641 z M123.7451171875 34.4531 l0 0.13674 c0 0.22135 0.11068 0.33203 0.33203 0.33203 l0.039063 0 l0 -0.058594 l-0.078125 0 l0 -0.039063 c0 -0.05209 0.045566 -0.097656 0.13672 -0.13672 l0.13672 0.078125 c0 -0.013027 0.013027 -0.10418 0.039063 -0.27346 c-0.013027 -0.2474 -0.13672 -0.37109 -0.37109 -0.37109 c-0.15625 0.039063 -0.23438 0.14975 -0.23438 0.33203 z M122.1431171875 34.1602 l0 0.29297 l0.33203 0 c0.065098 0 0.097656 -0.032559 0.097656 -0.097656 l0 -0.097656 c0 -0.065098 -0.032559 -0.097656 -0.097656 -0.097656 l-0.33203 0 z M126.6751171875 36.2305 l0.27344 0 l0 0.058594 c0 0.5599 -0.045566 0.83984 -0.13672 0.83984 s-0.13672 -0.20182 -0.13672 -0.60547 l0 -0.29297 z M126.6751171875 37.168 l0.27344 0 l0 0.29297 l-0.27344 0 l0 -0.29297 z M134.474614375 12.07 l9.5703 -0.000019073 c3.2031 0 5.2734 1.1263 6.2109 3.3789 c0.40365 1.1588 0.60547 2.4869 0.60547 3.9844 l0 1.1719 c0 2.7084 -0.59244 4.7721 -1.7773 6.1914 l-2.0313 0 l0 1.0352 l3.1055 0 l0 6.6797 l-1.8359 0 l0 1.0352 l2.7734 0 l0 3.9453 l-5.8203 0 l0 -6.3086 l-2.2461 0 l0 -4.082 l-3.9063 0 l0 6.9141 l0.83984 0 l0 3.9844 l-5.3906 0 c-0.065098 0 -0.097656 -0.032559 -0.097656 -0.097656 l0 -11.211 l2.4023 0 l0 -0.80078 l-2.4023 0 l0 -15.82 z M139.962884375 16.621 l0 7.8906 l1.3281 0 c1.9922 0 3.1445 -0.18881 3.457 -0.56641 c0.32553 -0.20834 0.57943 -0.63152 0.76172 -1.2696 l2.0703 0 l0 -0.99609 l-1.875 0 l0 0.097656 c-0.10416 0.59896 -0.18229 0.89844 -0.23438 0.89844 l-2.6758 0 l0 -0.99609 l2.8125 0 c0.065098 0 0.097656 -0.026035 0.097656 -0.078125 c0.026035 -0.80729 0.039063 -1.263 0.039063 -1.3672 c0 -1.7448 -0.29947 -2.8125 -0.89844 -3.2031 c-0.46875 -0.27344 -1.3281 -0.41016 -2.5781 -0.41016 l-2.3047 0 z M139.357384375 29.336 l0.23438 0 c0.13021 0.065098 0.19531 0.16275 0.19531 0.29297 c0.05209 0 0.11068 -0.097656 0.17578 -0.29297 l0.29297 0 l0 0.058594 l-0.29297 0.41016 c0 0.026035 0.11068 0.20182 0.33203 0.52734 l0 0.039063 l-0.23438 0 c-0.026035 0 -0.11719 -0.11068 -0.27344 -0.33203 c-0.091152 0.20834 -0.16928 0.31902 -0.23438 0.33205 l-0.23438 0 c0.20834 -0.32553 0.3125 -0.51434 0.3125 -0.56643 z M139.396484375 30.7422 l0.85938 0 l0 0.15625 l-0.52734 0.64453 l0.52734 0 l0 0.23438 l-0.89844 0 l0 -0.17578 l0.50781 -0.66406 l-0.46875 0 l0 -0.19531 z M159.1689890625 11.992 l5.5078 0 c0 2.6953 0.46875 4.9869 1.4063 6.875 c1.0156 2.4479 1.7057 4.3945 2.0703 5.8398 l0 0.039063 l0.058594 0 c0.46875 -1.7188 1.4388 -4.3814 2.9102 -7.9883 c0.3776 -1.7188 0.56641 -3.3072 0.56641 -4.7656 l5.1758 0 c-0.3125 2.8125 -0.70313 4.8828 -1.1719 6.2109 l-3.1055 7.0703 l-1.8945 0 l0 4.8438 l-2.8711 0 l0 0.9375 l2.8711 0 l0 8.9453 l-5.3516 0 c-0.065098 0 -0.097656 -0.032559 -0.097656 -0.097656 l0 -4.375 l-0.83984 0 l0 -7.7539 l1.582 0 l0 -0.72266 l-1.7383 0 c-0.14322 -0.16928 -1.2239 -2.5977 -3.2422 -7.2852 c-0.84635 -1.875 -1.2695 -3.0078 -1.2695 -3.3984 l2.3047 0 l0 -0.97656 l-2.5 0 c-0.2474 -2.0703 -0.37109 -3.2031 -0.37109 -3.3984 z M155.8290890625 15.390999999999998 l3.7109 0 l0.15625 0.97656 l-3.8672 0 l0 -0.97656 z M170.9267890625 25.448999999999998 l0.85938 0 l0 0.19531 l-0.52734 0.66406 l0.52734 0 l0 0.13672 c0 0.065098 -0.032559 0.097656 -0.097656 0.097656 l-0.70313 0 c-0.065098 0 -0.097656 -0.032559 -0.097656 -0.097656 l0 -0.097656 l0.52734 -0.64453 l-0.48828 0 l0 -0.25391 z M170.6927890625 30.1172 l2.3047 0 l0 0.9375 l-2.3047 0 l0 -0.9375 z">
    </path>
    </g>
</svg>